<?xml version="1.0" encoding="UTF-8" standalone="no"?>
<svg
   width="953.42834pt"
   height="1035.2411pt"
   version="1.1"
   viewBox="0 0 953.42834 1035.2411"
   id="svg143"
   sodipodi:docname="logo_typo_black.svg"
   inkscape:version="1.2 (56b05e47e7, 2022-06-09, custom)"
   inkscape:export-filename="thesocioscope.png"
   inkscape:export-xdpi="28.797659"
   inkscape:export-ydpi="28.797659"
   xmlns:inkscape="http://www.inkscape.org/namespaces/inkscape"
   xmlns:sodipodi="http://sodipodi.sourceforge.net/DTD/sodipodi-0.dtd"
   xmlns="http://www.w3.org/2000/svg"
   xmlns:svg="http://www.w3.org/2000/svg">
  <sodipodi:namedview
     id="namedview145"
     pagecolor="#505050"
     bordercolor="#eeeeee"
     borderopacity="1"
     inkscape:pageshadow="0"
     inkscape:pageopacity="0"
     inkscape:pagecheckerboard="0"
     inkscape:document-units="pt"
     showgrid="false"
     fit-margin-top="0"
     fit-margin-left="0"
     fit-margin-right="0"
     fit-margin-bottom="0"
     inkscape:zoom="0.3306987"
     inkscape:cx="1009.9828"
     inkscape:cy="573.02917"
     inkscape:window-width="2486"
     inkscape:window-height="1369"
     inkscape:window-x="74"
     inkscape:window-y="34"
     inkscape:window-maximized="1"
     inkscape:current-layer="text14768"
     inkscape:showpageshadow="0"
     inkscape:deskcolor="#505050" />
  <defs
     id="defs59">
    <symbol
       id="s"
       overflow="visible">
      <path
         d="m 18.766,-1.125 c -0.96875,0.5 -1.9805,0.875 -3.0312,1.125 -1.043,0.25781 -2.1367,0.39062 -3.2812,0.39062 -3.3984,0 -6.0898,-0.94531 -8.0781,-2.8438 -1.9922,-1.9062 -2.9844,-4.4844 -2.9844,-7.7344 0,-3.2578 0.99219,-5.8359 2.9844,-7.7344 1.9883,-1.9062 4.6797,-2.8594 8.0781,-2.8594 1.1445,0 2.2383,0.13281 3.2812,0.39062 1.0508,0.25 2.0625,0.625 3.0312,1.125 v 4.2188 c -0.98047,-0.65625 -1.9453,-1.1406 -2.8906,-1.4531 -0.94922,-0.3125 -1.9492,-0.46875 -3,-0.46875 -1.875,0 -3.3516,0.60547 -4.4219,1.8125 -1.0742,1.1992 -1.6094,2.8555 -1.6094,4.9688 0,2.1055 0.53516,3.7617 1.6094,4.9688 1.0703,1.1992 2.5469,1.7969 4.4219,1.7969 1.0508,0 2.0508,-0.14844 3,-0.45312 0.94531,-0.3125 1.9102,-0.80078 2.8906,-1.4688 z"
         id="path2" />
    </symbol>
    <symbol
       id="b"
       overflow="visible">
      <path
         d="m 13.734,-11.141 c -0.4375,-0.19531 -0.87109,-0.34375 -1.2969,-0.4375 -0.41797,-0.10156 -0.83984,-0.15625 -1.2656,-0.15625 -1.2617,0 -2.2305,0.40625 -2.9062,1.2188 -0.67969,0.80469 -1.0156,1.9531 -1.0156,3.4531 v 7.0625 H 2.3591 v -15.312 h 4.8906 v 2.5156 c 0.625,-1 1.3438,-1.7266 2.1562,-2.1875 0.82031,-0.46875 1.8008,-0.70312 2.9375,-0.70312 0.16406,0 0.34375,0.01172 0.53125,0.03125 0.19531,0.01172 0.47656,0.03906 0.84375,0.07813 z"
         id="path5" />
    </symbol>
    <symbol
       id="a"
       overflow="visible">
      <path
         d="m 17.641,-7.7031 v 1.4062 H 6.188 c 0.125,1.1484 0.53906,2.0078 1.25,2.5781 0.70703,0.57422 1.7031,0.85938 2.9844,0.85938 1.0312,0 2.082,-0.14844 3.1562,-0.45312 1.082,-0.3125 2.1914,-0.77344 3.3281,-1.3906 v 3.7656 c -1.1562,0.4375 -2.3125,0.76562 -3.4688,0.98438 -1.1562,0.22656 -2.3125,0.34375 -3.4688,0.34375 -2.7734,0 -4.9297,-0.70312 -6.4688,-2.1094 -1.5312,-1.4062 -2.2969,-3.3789 -2.2969,-5.9219 0,-2.5 0.75391,-4.4609 2.2656,-5.8906 1.5078,-1.4375 3.582,-2.1562 6.2188,-2.1562 2.4062,0 4.332,0.73047 5.7812,2.1875 1.4453,1.4492 2.1719,3.3828 2.1719,5.7969 z m -5.0312,-1.625 c 0,-0.92578 -0.27344,-1.6719 -0.8125,-2.2344 -0.54297,-0.57031 -1.25,-0.85938 -2.125,-0.85938 -0.94922,0 -1.7188,0.26562 -2.3125,0.79688 -0.5937,0.53126 -0.96484,1.2969 -1.1094,2.2969 z"
         id="path8" />
    </symbol>
    <symbol
       id="g"
       overflow="visible">
      <path
         d="m 9.2188,-6.8906 c -1.0234,0 -1.793,0.17188 -2.3125,0.51562 -0.51172,0.34375 -0.76562,0.85547 -0.76562,1.5312 0,0.625 0.20703,1.1172 0.625,1.4688 0.41406,0.34375 0.98828,0.51562 1.7188,0.51562 0.92578,0 1.7031,-0.32812 2.3281,-0.98438 0.63281,-0.66406 0.95312,-1.4922 0.95312,-2.4844 v -0.5625 z m 7.4688,-1.8438 V 0 h -4.9219 v -2.2656 c -0.65625,0.92969 -1.3984,1.6055 -2.2188,2.0312 -0.82422,0.41406 -1.8242,0.625 -3,0.625 -1.5859,0 -2.8711,-0.45703 -3.8594,-1.375 -0.99219,-0.92578 -1.4844,-2.1289 -1.4844,-3.6094 0,-1.7891 0.61328,-3.1016 1.8438,-3.9375 1.2383,-0.84375 3.1797,-1.2656 5.8281,-1.2656 h 2.8906 v -0.39062 c 0,-0.76953 -0.30859,-1.332 -0.92188,-1.6875 -0.61719,-0.36328 -1.5703,-0.54688 -2.8594,-0.54688 -1.0547,0 -2.0312,0.10547 -2.9375,0.3125 -0.89844,0.21094 -1.7305,0.52344 -2.5,0.9375 v -3.7344 c 1.0391,-0.25 2.0859,-0.44141 3.1406,-0.57812 1.0625,-0.13281 2.125,-0.20312 3.1875,-0.20312 2.7578,0 4.75,0.54688 5.9688,1.6406 1.2266,1.0859 1.8438,2.8555 1.8438,5.3125 z"
         id="path11" />
    </symbol>
    <symbol
       id="d"
       overflow="visible">
      <path
         d="m 7.7031,-19.656 v 4.3438 H 12.75 v 3.5 H 7.7031 v 6.5 c 0,0.71094 0.14062,1.1875 0.42188,1.4375 0.28126,0.25 0.83594,0.375 1.6719,0.375 h 2.5156 v 3.5 h -4.1875 c -1.9375,0 -3.3125,-0.39844 -4.125,-1.2031 -0.80469,-0.8125 -1.2031,-2.1797 -1.2031,-4.1094 v -6.5 h -2.4219 v -3.5 h 2.4219 v -4.3438 z"
         id="path14" />
    </symbol>
    <symbol
       id="m"
       overflow="visible">
      <path
         d="m 12.766,-13.078 v -8.2031 h 4.9219 V -1e-4 H 12.766 v -2.2188 c -0.66797,0.90625 -1.4062,1.5703 -2.2188,1.9844 -0.8126,0.4141 -1.7578,0.625 -2.8281,0.625 -1.8867,0 -3.4336,-0.75 -4.6406,-2.25 -1.2109,-1.5 -1.8125,-3.4258 -1.8125,-5.7812 0,-2.3633 0.60156,-4.2969 1.8125,-5.7969 1.207,-1.5 2.7539,-2.25 4.6406,-2.25 1.0625,0 2,0.21484 2.8125,0.64062 0.82031,0.42969 1.5664,1.0859 2.2344,1.9688 z m -3.2188,9.9219 c 1.0391,0 1.8359,-0.37891 2.3906,-1.1406 0.55078,-0.76953 0.82812,-1.8828 0.82812,-3.3438 0,-1.457 -0.27734,-2.5664 -0.82812,-3.3281 -0.55469,-0.76953 -1.3516,-1.1562 -2.3906,-1.1562 -1.043,0 -1.8398,0.38672 -2.3906,1.1562 -0.55469,0.76172 -0.82812,1.8711 -0.82812,3.3281 0,1.4609 0.27344,2.5742 0.82812,3.3438 0.55078,0.76172 1.3477,1.1406 2.3906,1.1406 z"
         id="path17" />
    </symbol>
    <symbol
       id="l"
       overflow="visible">
      <path
         d="m 10.5,-3.1562 c 1.0508,0 1.8516,-0.37891 2.4062,-1.1406 0.55078,-0.76953 0.82812,-1.8828 0.82812,-3.3438 0,-1.457 -0.27734,-2.5664 -0.82812,-3.3281 -0.55469,-0.76953 -1.3555,-1.1562 -2.4062,-1.1562 -1.0547,0 -1.8594,0.38672 -2.4219,1.1562 -0.55469,0.77344 -0.82812,1.8828 -0.82812,3.3281 0,1.4492 0.27344,2.5586 0.82812,3.3281 0.5625,0.77344 1.3672,1.1562 2.4219,1.1562 z m -3.25,-9.9219 c 0.67578,-0.88281 1.4219,-1.5391 2.2344,-1.9688 0.82031,-0.42578 1.7656,-0.64062 2.8281,-0.64062 1.8945,0 3.4453,0.75 4.6562,2.25 1.207,1.5 1.8125,3.4336 1.8125,5.7969 0,2.3555 -0.60547,4.2812 -1.8125,5.7812 -1.2109,1.5 -2.7617,2.25 -4.6562,2.25 -1.0625,0 -2.0078,-0.21094 -2.8281,-0.625 C 8.6719,-0.6602 7.9258,-1.32032 7.25,-2.21882 V -2e-5 H 2.3594 v -21.281 H 7.25 Z"
         id="path20" />
    </symbol>
    <symbol
       id="k"
       overflow="visible">
      <path
         d="m 0.34375,-15.312 h 4.8906 l 4.125,10.391 3.5,-10.391 h 4.8906 l -6.4375,16.766 c -0.64844,1.6953 -1.4023,2.8828 -2.2656,3.5625 -0.86719,0.6875 -2,1.0312 -3.4062,1.0312 H 2.79685 V 2.8289 h 1.5312 c 0.83203,0 1.4375,-0.13672 1.8125,-0.40625 C 6.52336,2.16093 6.82024,1.69218 7.03117,1.01645 L 7.17179,0.59457 Z"
         id="path23" />
    </symbol>
    <symbol
       id="j"
       overflow="visible">
      <path
         d="M 2.3594,-15.312 H 7.25 V 0 H 2.3594 Z m 0,-5.9688 H 7.25 v 4 H 2.3594 Z"
         id="path26" />
    </symbol>
    <symbol
       id="f"
       overflow="visible">
      <path
         d="M 17.75,-9.3281 V 0 h -4.9219 v -7.1406 c 0,-1.3203 -0.03125,-2.2344 -0.09375,-2.7344 -0.0625,-0.5 -0.16797,-0.86719 -0.3125,-1.1094 -0.1875,-0.3125 -0.44922,-0.55469 -0.78125,-0.73438 -0.32422,-0.17578 -0.69531,-0.26562 -1.1094,-0.26562 -1.0234,0 -1.8242,0.39844 -2.4062,1.1875 -0.58594,0.78125 -0.875,1.8711 -0.875,3.2656 V -1e-4 H 2.3594 v -15.312 H 7.25 v 2.2344 c 0.73828,-0.88281 1.5195,-1.5391 2.3438,-1.9688 0.83203,-0.42578 1.75,-0.64062 2.75,-0.64062 1.7695,0 3.1133,0.54688 4.0312,1.6406 0.91406,1.0859 1.375,2.6562 1.375,4.7188 z"
         id="path29" />
    </symbol>
    <symbol
       id="i"
       overflow="visible">
      <path
         d="M 17.75,-9.3281 V 0 h -4.9219 v -7.1094 c 0,-1.3438 -0.03125,-2.2656 -0.09375,-2.7656 -0.0625,-0.5 -0.16797,-0.86719 -0.3125,-1.1094 -0.1875,-0.3125 -0.44922,-0.55469 -0.78125,-0.73438 -0.32422,-0.17578 -0.69531,-0.26562 -1.1094,-0.26562 -1.0234,0 -1.8242,0.39844 -2.4062,1.1875 -0.58594,0.78125 -0.875,1.8711 -0.875,3.2656 V -1e-4 H 2.3594 v -21.281 H 7.25 v 8.2031 c 0.73828,-0.88281 1.5195,-1.5391 2.3438,-1.9688 0.83203,-0.42578 1.75,-0.64062 2.75,-0.64062 1.7695,0 3.1133,0.54688 4.0312,1.6406 0.91406,1.0859 1.375,2.6562 1.375,4.7188 z"
         id="path32" />
    </symbol>
    <symbol
       id="c"
       overflow="visible">
      <path
         d="m 9.6406,-12.188 c -1.0859,0 -1.9141,0.39062 -2.4844,1.1719 -0.57422,0.78125 -0.85938,1.9062 -0.85938,3.375 0,1.4688 0.28516,2.5938 0.85938,3.375 0.57031,0.77344 1.3984,1.1562 2.4844,1.1562 1.0625,0 1.875,-0.38281 2.4375,-1.1562 0.57031,-0.78125 0.85938,-1.9062 0.85938,-3.375 0,-1.4688 -0.28906,-2.5938 -0.85938,-3.375 -0.5625,-0.78125 -1.375,-1.1719 -2.4375,-1.1719 z m 0,-3.5 c 2.6328,0 4.6914,0.71484 6.1719,2.1406 1.4766,1.418 2.2188,3.3867 2.2188,5.9062 0,2.5117 -0.74219,4.4805 -2.2188,5.9062 C 14.332,-0.317 12.2734,0.39 9.6406,0.39 6.9922,0.39 4.9258,-0.31703 3.4375,-1.735 1.9453,-3.1608 1.2031,-5.1295 1.2031,-7.6412 c 0,-2.5195 0.74219,-4.4883 2.2344,-5.9062 1.4883,-1.4258 3.5547,-2.1406 6.2031,-2.1406 z"
         id="path35" />
    </symbol>
    <symbol
       id="e"
       overflow="visible">
      <path
         d="m 12.422,-21.281 v 3.2188 H 9.7189 c -0.6875,0 -1.1719,0.125 -1.4531,0.375 -0.27344,0.25 -0.40625,0.6875 -0.40625,1.3125 v 1.0625 h 4.1875 v 3.5 H 7.85955 V -2e-4 h -4.8906 v -11.812 h -2.4375 v -3.5 h 2.4375 v -1.0625 c 0,-1.6641 0.46094,-2.8984 1.3906,-3.7031 0.92578,-0.80078 2.3672,-1.2031 4.3281,-1.2031 z"
         id="path38" />
    </symbol>
    <symbol
       id="h"
       overflow="visible">
      <path
         d="m 16.547,-12.766 c 0.61328,-0.94531 1.3477,-1.6719 2.2031,-2.1719 0.85156,-0.5 1.7891,-0.75 2.8125,-0.75 1.7578,0 3.0977,0.54688 4.0156,1.6406 0.92578,1.0859 1.3906,2.6562 1.3906,4.7188 V -4e-4 h -4.9219 v -7.9844 -0.35938 c 0.0078,-0.13281 0.01563,-0.32031 0.01563,-0.5625 0,-1.082 -0.16406,-1.8633 -0.48438,-2.3438 -0.3125,-0.48828 -0.82422,-0.73438 -1.5312,-0.73438 -0.92969,0 -1.6484,0.38672 -2.1562,1.1562 -0.51172,0.76172 -0.77344,1.8672 -0.78125,3.3125 v 7.5156 h -4.9219 v -7.9844 c 0,-1.6953 -0.14844,-2.7852 -0.4375,-3.2656 -0.29297,-0.48828 -0.8125,-0.73438 -1.5625,-0.73438 -0.9375,0 -1.6641,0.38672 -2.1719,1.1562 -0.51172,0.76172 -0.76562,1.8594 -0.76562,3.2969 v 7.5312 h -4.9219 v -15.312 h 4.9219 v 2.2344 c 0.60156,-0.86328 1.2891,-1.5156 2.0625,-1.9531 0.78125,-0.4375 1.6406,-0.65625 2.5781,-0.65625 1.0625,0 2,0.25781 2.8125,0.76562 0.8125,0.51172 1.4258,1.2305 1.8438,2.1562 z"
         id="path41" />
    </symbol>
    <symbol
       id="r"
       overflow="visible">
      <path
         d="m 2.5781,-20.406 h 5.875 l 7.4219,14 v -14 h 4.9844 V 0 h -5.875 L 7.5625,-14 V 0 H 2.5781 Z"
         id="path44" />
    </symbol>
    <symbol
       id="q"
       overflow="visible">
      <path
         d="m 2.1875,-5.9688 v -9.3438 h 4.9219 v 1.5312 c 0,0.83594 -0.00781,1.875 -0.015625,3.125 -0.011719,1.25 -0.015625,2.0859 -0.015625,2.5 0,1.2422 0.03125,2.1328 0.09375,2.6719 0.070313,0.54297 0.17969,0.93359 0.32812,1.1719 0.20703,0.32422 0.47266,0.57422 0.79688,0.75 0.32031,0.16797 0.69141,0.25 1.1094,0.25 1.0195,0 1.8203,-0.39062 2.4062,-1.1719 0.58203,-0.78125 0.875,-1.8672 0.875,-3.2656 v -7.5625 h 4.8906 V -6e-4 H 12.6875 V -2.2194 C 11.94531,-1.32096 11.1641,-0.6608 10.3437,-0.235 9.51948,0.17906 8.6093,0.39 7.6093,0.39 5.8476,0.39 4.5038,-0.14906 3.5781,-1.235 2.64841,-2.317 2.1875,-3.8952 2.1875,-5.9694 Z"
         id="path47" />
    </symbol>
    <symbol
       id="p"
       overflow="visible">
      <path
         d="m 2.5781,-20.406 h 8.7344 c 2.5938,0 4.582,0.57812 5.9688,1.7344 1.3945,1.1484 2.0938,2.7891 2.0938,4.9219 0,2.1367 -0.69922,3.7812 -2.0938,4.9375 -1.3867,1.1562 -3.375,1.7344 -5.9688,1.7344 H 7.8281 V 3e-4 h -5.25 z m 5.25,3.8125 v 5.7031 H 10.75 c 1.0195,0 1.8047,-0.25 2.3594,-0.75 0.5625,-0.5 0.84375,-1.2031 0.84375,-2.1094 0,-0.91406 -0.28125,-1.6172 -0.84375,-2.1094 -0.55469,-0.48828 -1.3398,-0.73438 -2.3594,-0.73438 z"
         id="path50" />
    </symbol>
    <symbol
       id="o"
       overflow="visible">
      <path
         d="M 2.3594,-15.312 H 7.25 v 15.031 c 0,2.0508 -0.49609,3.6172 -1.4844,4.7031 -0.98047,1.082 -2.4062,1.625 -4.2812,1.625 H -0.9375 V 2.8283 h 0.85938 c 0.92578,0 1.5625,-0.21094 1.9062,-0.625 0.35156,-0.41797 0.53125,-1.2461 0.53125,-2.4844 z m 0,-5.9688 H 7.25 v 4 H 2.3594 Z"
         id="path53" />
    </symbol>
    <symbol
       id="n"
       overflow="visible">
      <path
         d="m 14.719,-14.828 v 3.9844 c -0.65625,-0.45703 -1.3242,-0.79688 -2,-1.0156 -0.66797,-0.21875 -1.3594,-0.32812 -2.0781,-0.32812 -1.3672,0 -2.4336,0.40234 -3.2031,1.2031 -0.76172,0.79297 -1.1406,1.9062 -1.1406,3.3438 0,1.4297 0.37891,2.543 1.1406,3.3438 0.76953,0.79297 1.8359,1.1875 3.2031,1.1875 0.75781,0 1.4844,-0.10938 2.1719,-0.32812 0.6875,-0.22656 1.3203,-0.56641 1.9062,-1.0156 v 4 c -0.76172,0.28125 -1.5391,0.48828 -2.3281,0.625 -0.78125,0.14453 -1.5742,0.21875 -2.375,0.21875 -2.7617,0 -4.9219,-0.70703 -6.4844,-2.125 -1.5547,-1.4141 -2.3281,-3.3828 -2.3281,-5.9062 0,-2.5312 0.77344,-4.5039 2.3281,-5.9219 1.5625,-1.4141 3.7227,-2.125 6.4844,-2.125 0.80078,0 1.5938,0.07422 2.375,0.21875 0.78125,0.13672 1.5547,0.35156 2.3281,0.64062 z"
         id="path56" />
    </symbol>
  </defs>
  <g
     id="g141"
     transform="translate(2383.3888,180.6037)">
    <g
       aria-label="THE
FOOD
SOCIO
SCOPE"
       id="text14768"
       style="font-size:295.945px;line-height:0.9;font-family:Petrona;-inkscape-font-specification:Petrona;stroke-width:1.54139">
      <path
         d="m -2208.4853,-144.79435 h -67.1795 V 29.517258 h -40.5444 V -144.79435 h -67.1796 v -35.80935 h 174.9035 z"
         style="font-weight:bold;font-family:Raleway;-inkscape-font-specification:'Raleway Bold'"
         id="path5157" />
      <path
         d="M -2005.7631,-180.6037 V 29.517258 h -40.5444 V -60.15408 h -95.2943 v 89.671338 h -40.8404 V -180.6037 h 40.8404 v 84.93622 h 95.2943 v -84.93622 z"
         style="font-weight:bold;font-family:Raleway;-inkscape-font-specification:'Raleway Bold'"
         id="path5159" />
      <path
         d="M -1816.0626,-6.2920882 V 29.517258 h -145.9009 V -180.6037 h 143.2373 v 35.80935 h -102.3969 v 50.606595 h 88.4875 v 33.14584 h -88.4875 v 54.7498268 z"
         style="font-weight:bold;font-family:Raleway;-inkscape-font-specification:'Raleway Bold'"
         id="path5161" />
      <path
         d="m -2371.252,295.86776 v -156.2 h 104.94 v 26.62 h -74.58 v 40.26 h 62.04 v 24.64 h -62.04 v 64.68 z"
         style="font-weight:bold;font-size:220px;font-family:Raleway;-inkscape-font-specification:'Raleway Bold';fill:#43a047"
         id="path5163" />
      <path
         d="m -2180.7753,296.96776 q -17.16,0 -31.24,-6.6 -13.86,-6.6 -23.98,-17.82 -9.9,-11.44 -15.4,-25.52 -5.5,-14.3 -5.5,-29.26 0,-15.62 5.72,-29.7 5.94,-14.3 16.06,-25.3 10.34,-11.22 24.2,-17.6 14.08,-6.6 30.8,-6.6 16.94,0 30.8,6.82 14.08,6.82 23.98,18.26 9.9,11.44 15.4,25.52 5.5,14.08 5.5,29.04 0,15.4 -5.72,29.7 -5.72,14.08 -16.06,25.3 -10.12,11 -24.2,17.38 -13.86,6.38 -30.36,6.38 z m -45.32,-79.2 q 0,10.12 3.08,19.58 3.08,9.46 8.8,16.94 5.94,7.26 14.3,11.66 8.58,4.18 19.36,4.18 11,0 19.58,-4.4 8.58,-4.62 14.3,-12.1 5.72,-7.7 8.58,-16.94 3.08,-9.46 3.08,-18.92 0,-10.12 -3.3,-19.36 -3.08,-9.46 -9.02,-16.72 -5.72,-7.48 -14.3,-11.66 -8.36,-4.4 -18.92,-4.4 -11.22,0 -19.8,4.62 -8.36,4.4 -14.08,11.88 -5.72,7.48 -8.8,16.72 -2.86,9.24 -2.86,18.92 z"
         style="font-weight:bold;font-size:220px;font-family:Raleway;-inkscape-font-specification:'Raleway Bold';fill:#43a047"
         id="path5165" />
      <path
         d="m -2014.4556,296.96776 q -17.16,0 -31.24,-6.6 -13.86,-6.6 -23.98,-17.82 -9.9,-11.44 -15.4,-25.52 -5.5,-14.3 -5.5,-29.26 0,-15.62 5.72,-29.7 5.94,-14.3 16.06,-25.3 10.34,-11.22 24.2,-17.6 14.08,-6.6 30.8,-6.6 16.94,0 30.8,6.82 14.08,6.82 23.98,18.26 9.9,11.44 15.4,25.52 5.5,14.08 5.5,29.04 0,15.4 -5.72,29.7 -5.72,14.08 -16.06,25.3 -10.12,11 -24.2,17.38 -13.86,6.38 -30.36,6.38 z m -45.32,-79.2 q 0,10.12 3.08,19.58 3.08,9.46 8.8,16.94 5.94,7.26 14.3,11.66 8.58,4.18 19.36,4.18 11,0 19.58,-4.4 8.58,-4.62 14.3,-12.1 5.72,-7.7 8.58,-16.94 3.08,-9.46 3.08,-18.92 0,-10.12 -3.3,-19.36 -3.08,-9.46 -9.02,-16.72 -5.72,-7.48 -14.3,-11.66 -8.36,-4.4 -18.92,-4.4 -11.22,0 -19.8,4.62 -8.36,4.4 -14.08,11.88 -5.72,7.48 -8.8,16.72 -2.86,9.24 -2.86,18.92 z"
         style="font-weight:bold;font-size:220px;font-family:Raleway;-inkscape-font-specification:'Raleway Bold';fill:#43a047"
         id="path5167" />
      <path
         d="m -1914.7959,295.86776 v -156.2 h 56.76 q 25.52,0 42.68,10.56 17.16,10.34 25.74,28.16 8.58,17.6 8.58,39.16 0,23.76 -9.46,41.36 -9.46,17.6 -26.84,27.28 -17.16,9.68 -40.7,9.68 z m 103.18,-78.32 q 0,-15.18 -5.5,-26.62 -5.5,-11.66 -15.84,-18.04 -10.34,-6.6 -25.08,-6.6 h -26.4 v 102.96 h 26.4 q 14.96,0 25.3,-6.6 10.34,-6.82 15.62,-18.48 5.5,-11.88 5.5,-26.62 z"
         style="font-weight:bold;font-size:220px;font-family:Raleway;-inkscape-font-specification:'Raleway Bold';fill:#43a047"
         id="path5169" />
      <path
         d="m -2240.4473,418.99364 q -2.0716,-2.07162 -7.6946,-5.62296 -5.327,-3.55134 -13.3175,-6.80673 -7.6946,-3.2554 -16.8689,-5.62296 -9.1743,-2.6635 -18.6445,-2.6635 -16.5729,0 -25.1553,6.21484 -8.2865,6.21485 -8.2865,17.46076 0,8.5824 5.327,13.61347 5.327,5.03106 15.981,8.5824 10.6541,3.55134 26.6351,7.69457 20.7161,5.03107 35.8093,12.42969 15.3892,7.10268 23.3797,18.94048 8.2865,11.54186 8.2865,30.77829 0,16.86886 -6.2149,29.00261 -6.2148,11.8378 -17.1648,19.23642 -10.95,7.39863 -24.8594,10.94997 -13.9094,3.25539 -29.5945,3.25539 -15.6851,0 -31.3702,-3.25539 -15.685,-3.2554 -30.1863,-9.1743 -14.5013,-6.21484 -26.6351,-14.79725 l 18.0527,-35.21745 q 2.6635,2.6635 9.4702,7.10268 6.8067,4.14323 16.5729,8.5824 9.7662,4.14323 21.3081,7.10268 11.5418,2.95945 23.3796,2.95945 16.5729,0 25.1553,-5.62295 8.5824,-5.62296 8.5824,-15.98103 0,-9.47024 -6.8067,-14.79725 -6.8067,-5.32701 -18.9405,-9.1743 -12.1337,-4.14323 -28.7066,-8.87835 -19.8284,-5.62296 -33.1459,-12.42969 -13.3175,-7.10268 -19.8283,-17.7567 -6.5108,-10.65402 -6.5108,-26.63505 0,-21.60399 10.0621,-36.10529 10.3581,-14.79725 27.8189,-22.19588 17.4607,-7.69457 38.7688,-7.69457 14.7972,0 27.8188,3.2554 13.3175,3.25539 24.8594,8.5824 11.5418,5.32701 20.7161,11.54186 z"
         style="font-weight:bold;font-family:Raleway;-inkscape-font-specification:'Raleway Bold'"
         id="path5171" />
      <path
         d="m -2094.5467,575.54855 q -23.0837,0 -42.0242,-8.87835 -18.6446,-8.87835 -32.258,-23.97155 -13.3176,-15.38914 -20.7162,-34.32962 -7.3986,-19.23643 -7.3986,-39.36069 0,-21.01209 7.6946,-39.95257 7.9905,-19.23643 21.604,-34.03368 13.9094,-15.09319 32.5539,-23.6756 18.9405,-8.87835 41.4323,-8.87835 22.7878,0 41.4323,9.1743 18.9405,9.17429 32.258,24.56343 13.3175,15.38914 20.7162,34.32962 7.3986,18.94048 7.3986,39.06474 0,20.71616 -7.6946,39.95258 -7.6946,18.94048 -21.604,34.03368 -13.6134,14.79725 -32.5539,23.37965 -18.6446,8.58241 -40.8404,8.58241 z m -60.9647,-106.54021 q 0,13.61347 4.1432,26.33911 4.1433,12.72564 11.8378,22.78777 7.9905,9.76618 19.2365,15.68508 11.5418,5.62296 26.0431,5.62296 14.7973,0 26.3391,-5.9189 11.5419,-6.21485 19.2364,-16.27698 7.6946,-10.35807 11.5419,-22.78776 4.1432,-12.72564 4.1432,-25.45128 0,-13.61347 -4.4391,-26.04316 -4.1433,-12.72563 -12.1338,-22.49182 -7.6946,-10.06213 -19.2364,-15.68508 -11.2459,-5.9189 -25.4513,-5.9189 -15.0932,0 -26.635,6.21484 -11.2459,5.9189 -18.9405,15.98103 -7.6946,10.06213 -11.8378,22.49182 -3.8473,12.42969 -3.8473,25.45127 z"
         style="font-weight:bold;font-family:Raleway;-inkscape-font-specification:'Raleway Bold'"
         id="path5173" />
      <path
         d="m -1973.2097,467.52862 q 0,-19.23643 6.8068,-37.58502 7.1026,-18.64453 20.4202,-33.73773 13.3175,-15.38914 32.5539,-24.26749 19.2364,-9.17429 43.7999,-9.17429 29.0026,0 50.0147,12.72563 21.308,12.72564 31.6661,33.14584 l -31.3702,21.60399 q -5.327,-11.8378 -13.9094,-18.64454 -8.5824,-7.10268 -18.3486,-9.76618 -9.7662,-2.95945 -19.2364,-2.95945 -15.3891,0 -26.931,6.21484 -11.2459,6.21485 -18.9405,16.27698 -7.6946,10.06213 -11.5418,22.49182 -3.5514,12.42969 -3.5514,24.85938 0,13.90941 4.4392,26.931 4.4392,12.72563 12.4297,22.78776 8.2864,9.76619 19.5324,15.68509 11.5418,5.62295 25.1553,5.62295 9.7662,0 19.8283,-3.25539 10.0621,-3.2554 18.6445,-10.35808 8.5824,-7.10268 13.3176,-18.34859 l 33.4417,19.23643 q -6.2148,15.68508 -20.4202,26.63505 -13.9094,10.94996 -31.3701,16.57292 -17.4608,5.62295 -34.6256,5.62295 -22.4918,0 -41.1364,-9.17429 -18.6445,-9.47024 -32.258,-24.85938 -13.3175,-15.68509 -21.0121,-34.92151 -7.3986,-19.53238 -7.3986,-39.36069 z"
         style="font-weight:bold;font-family:Raleway;-inkscape-font-specification:'Raleway Bold'"
         id="path5175" />
      <path
         d="M -1757.4661,574.06882 V 363.94787 h 40.8404 v 210.12095 z"
         style="font-weight:bold;font-family:Raleway;-inkscape-font-specification:'Raleway Bold'"
         id="path5177" />
      <path
         d="m -1583.1547,575.54855 q -23.0837,0 -42.0242,-8.87835 -18.6445,-8.87835 -32.258,-23.97155 -13.3175,-15.38914 -20.7161,-34.32962 -7.3987,-19.23643 -7.3987,-39.36069 0,-21.01209 7.6946,-39.95257 7.9905,-19.23643 21.604,-34.03368 13.9094,-15.09319 32.5539,-23.6756 18.9405,-8.87835 41.4324,-8.87835 22.7877,0 41.4323,9.1743 18.9404,9.17429 32.258,24.56343 13.3175,15.38914 20.7161,34.32962 7.3986,18.94048 7.3986,39.06474 0,20.71616 -7.6945,39.95258 -7.6946,18.94048 -21.604,34.03368 -13.6135,14.79725 -32.554,23.37965 -18.6445,8.58241 -40.8404,8.58241 z m -60.9647,-106.54021 q 0,13.61347 4.1433,26.33911 4.1432,12.72564 11.8378,22.78777 7.9905,9.76618 19.2364,15.68508 11.5419,5.62296 26.0432,5.62296 14.7972,0 26.3391,-5.9189 11.5418,-6.21485 19.2364,-16.27698 7.6946,-10.35807 11.5418,-22.78776 4.1433,-12.72564 4.1433,-25.45128 0,-13.61347 -4.4392,-26.04316 -4.1432,-12.72563 -12.1337,-22.49182 -7.6946,-10.06213 -19.2365,-15.68508 -11.2459,-5.9189 -25.4512,-5.9189 -15.0932,0 -26.6351,6.21484 -11.2459,5.9189 -18.9405,15.98103 -7.6945,10.06213 -11.8378,22.49182 -3.8473,12.42969 -3.8473,25.45127 z"
         style="font-weight:bold;font-family:Raleway;-inkscape-font-specification:'Raleway Bold'"
         id="path5179" />
      <path
         d="m -2240.4473,697.1947 q -2.0716,-2.07161 -7.6946,-5.62295 -5.327,-3.55134 -13.3175,-6.80674 -7.6946,-3.25539 -16.8689,-5.62295 -9.1743,-2.66351 -18.6445,-2.66351 -16.5729,0 -25.1553,6.21485 -8.2865,6.21484 -8.2865,17.46075 0,8.58241 5.327,13.61347 5.327,5.03107 15.981,8.58241 10.6541,3.55134 26.6351,7.69457 20.7161,5.03106 35.8093,12.42969 15.3892,7.10268 23.3797,18.94048 8.2865,11.54185 8.2865,30.77828 0,16.86887 -6.2149,29.00261 -6.2148,11.8378 -17.1648,19.23643 -10.95,7.39862 -24.8594,10.94996 -13.9094,3.2554 -29.5945,3.2554 -15.6851,0 -31.3702,-3.2554 -15.685,-3.25539 -30.1863,-9.17429 -14.5013,-6.21485 -26.6351,-14.79725 l 18.0527,-35.21746 q 2.6635,2.66351 9.4702,7.10268 6.8067,4.14323 16.5729,8.58241 9.7662,4.14323 21.3081,7.10268 11.5418,2.95945 23.3796,2.95945 16.5729,0 25.1553,-5.62296 8.5824,-5.62295 8.5824,-15.98103 0,-9.47024 -6.8067,-14.79725 -6.8067,-5.32701 -18.9405,-9.1743 -12.1337,-4.14323 -28.7066,-8.87835 -19.8284,-5.62295 -33.1459,-12.42969 -13.3175,-7.10268 -19.8283,-17.7567 -6.5108,-10.65402 -6.5108,-26.63505 0,-21.60398 10.0621,-36.10529 10.3581,-14.79725 27.8189,-22.19587 17.4607,-7.69457 38.7688,-7.69457 14.7972,0 27.8188,3.25539 13.3175,3.2554 24.8594,8.58241 11.5418,5.32701 20.7161,11.54185 z"
         style="font-weight:bold;font-family:Raleway;-inkscape-font-specification:'Raleway Bold'"
         id="path5181" />
      <path
         d="m -2196.9437,745.72968 q 0,-19.23642 6.8067,-37.58501 7.1027,-18.64454 20.4202,-33.73773 13.3176,-15.38914 32.554,-24.26749 19.2364,-9.1743 43.7999,-9.1743 29.0026,0 50.0147,12.72564 21.308,12.72563 31.6661,33.14584 l -31.3702,21.60398 q -5.327,-11.8378 -13.9094,-18.64453 -8.5824,-7.10268 -18.3486,-9.76619 -9.7662,-2.95945 -19.2364,-2.95945 -15.3892,0 -26.931,6.21485 -11.2459,6.21484 -18.9405,16.27697 -7.6946,10.06213 -11.5419,22.49182 -3.5513,12.42969 -3.5513,24.85938 0,13.90942 4.4392,26.931 4.4392,12.72564 12.4297,22.78777 8.2864,9.76618 19.5323,15.68508 11.5419,5.62296 25.1554,5.62296 9.7661,0 19.8283,-3.2554 10.0621,-3.25539 18.6445,-10.35807 8.5824,-7.10268 13.3175,-18.34859 l 33.4418,19.23642 q -6.2148,15.68509 -20.4202,26.63505 -13.9094,10.94997 -31.3702,16.57292 -17.4607,5.62296 -34.6255,5.62296 -22.4918,0 -41.1364,-9.1743 -18.6445,-9.47024 -32.258,-24.85938 -13.3175,-15.68508 -21.0121,-34.92151 -7.3986,-19.53237 -7.3986,-39.36069 z"
         style="font-weight:bold;font-family:Raleway;-inkscape-font-specification:'Raleway Bold'"
         id="path5183" />
      <path
         d="m -1894.2975,853.74961 q -23.0837,0 -42.0242,-8.87835 -18.6445,-8.87835 -32.258,-23.97154 -13.3175,-15.38914 -20.7162,-34.32962 -7.3986,-19.23643 -7.3986,-39.36069 0,-21.0121 7.6946,-39.95258 7.9905,-19.23642 21.604,-34.03367 13.9094,-15.0932 32.5539,-23.6756 18.9405,-8.87835 41.4323,-8.87835 22.7878,0 41.4323,9.17429 18.9405,9.1743 32.258,24.56344 13.3176,15.38914 20.7162,34.32962 7.3986,18.94048 7.3986,39.06474 0,20.71615 -7.6946,39.95258 -7.6945,18.94048 -21.6039,34.03367 -13.6135,14.79725 -32.554,23.37966 -18.6445,8.5824 -40.8404,8.5824 z m -60.9647,-106.5402 q 0,13.61347 4.1433,26.33911 4.1432,12.72563 11.8378,22.78776 7.9905,9.76619 19.2364,15.68509 11.5418,5.62295 26.0431,5.62295 14.7973,0 26.3391,-5.9189 11.5419,-6.21484 19.2365,-16.27697 7.6945,-10.35808 11.5418,-22.78777 4.1433,-12.72564 4.1433,-25.45127 0,-13.61347 -4.4392,-26.04316 -4.1433,-12.72564 -12.1338,-22.49182 -7.6945,-10.06213 -19.2364,-15.68509 -11.2459,-5.9189 -25.4513,-5.9189 -15.0932,0 -26.635,6.21485 -11.2459,5.9189 -18.9405,15.98103 -7.6946,10.06213 -11.8378,22.49182 -3.8473,12.42969 -3.8473,25.45127 z"
         style="font-weight:bold;font-family:Raleway;-inkscape-font-specification:'Raleway Bold'"
         id="path5185" />
      <path
         d="M -1760.2348,852.26989 V 642.14893 h 89.0794 q 14.5013,0 26.6351,5.9189 12.1337,5.9189 21.0121,15.98103 9.1743,10.06213 14.2053,22.49182 5.0311,12.42969 5.0311,25.45127 0,17.7567 -8.2865,33.73773 -8.2864,15.98103 -22.7877,26.04316 -14.5013,10.06214 -34.3297,10.06214 h -49.7187 v 70.43491 z m 40.8404,-106.24426 h 47.3512 q 7.3986,0 13.3175,-4.14323 5.9189,-4.14323 9.4702,-11.8378 3.5514,-7.99052 3.5514,-18.05265 0,-10.94996 -4.1432,-18.64453 -3.8473,-7.69457 -10.3581,-11.54186 -6.2149,-3.84728 -13.6135,-3.84728 h -45.5755 z"
         style="font-weight:bold;font-family:Raleway;-inkscape-font-specification:'Raleway Bold'"
         id="path5187" />
      <path
         d="m -1429.9604,816.46054 v 35.80935 h -145.9009 V 642.14893 h 143.2374 v 35.80935 h -102.397 v 50.60659 h 88.4876 v 33.14584 h -88.4876 v 54.74983 z"
         style="font-weight:bold;font-family:Raleway;-inkscape-font-specification:'Raleway Bold'"
         id="path5189" />
    </g>
  </g>
</svg>
