<?xml version="1.0" encoding="UTF-8" standalone="no"?>
<!-- Created with Inkscape (http://www.inkscape.org/) -->

<svg
   version="1.1"
   id="svg2"
   xml:space="preserve"
   width="221.21466"
   height="221.21866"
   viewBox="0 0 221.21466 221.21866"
   sodipodi:docname="pias.svg"
   inkscape:version="1.1.2 (08b2f3d93c, 2022-04-05)"
   inkscape:export-filename="/home/bob/Projects/pias/static/logo_w.png"
   inkscape:export-xdpi="216.97989"
   inkscape:export-ydpi="216.97989"
   xmlns:inkscape="http://www.inkscape.org/namespaces/inkscape"
   xmlns:sodipodi="http://sodipodi.sourceforge.net/DTD/sodipodi-0.dtd"
   xmlns="http://www.w3.org/2000/svg"
   xmlns:svg="http://www.w3.org/2000/svg"><defs
     id="defs6"><clipPath
       clipPathUnits="userSpaceOnUse"
       id="clipPath16"><path
         d="M 0,279.467 H 331.733 V 0 H 0 Z"
         id="path14" /></clipPath></defs><sodipodi:namedview
     id="namedview4"
     pagecolor="#ffffff"
     bordercolor="#666666"
     borderopacity="1.0"
     inkscape:pageshadow="2"
     inkscape:pageopacity="0.0"
     inkscape:pagecheckerboard="0"
     showgrid="false"
     inkscape:zoom="1.656647"
     inkscape:cx="27.76693"
     inkscape:cy="47.384869"
     inkscape:window-width="2486"
     inkscape:window-height="1369"
     inkscape:window-x="74"
     inkscape:window-y="34"
     inkscape:window-maximized="1"
     inkscape:current-layer="g2831"
     fit-margin-top="0"
     fit-margin-left="0"
     fit-margin-right="0"
     fit-margin-bottom="0"
     inkscape:snap-page="false"
     showguides="false" /><g
     id="g8"
     inkscape:groupmode="layer"
     inkscape:label="Logo IEA gold"
     transform="matrix(1.3333333,0,0,-1.3333333,-104.3932,343.66039)"><g
       id="g70259"
       transform="matrix(0.73137076,0,0,0.73137076,43.315878,37.841777)"
       style="fill:#757575;fill-opacity:0.27450982" /><g
       aria-label="IEA"
       transform="matrix(1.1681872,0,0,-1.1681872,-28.859057,-34.391602)"
       id="text5386"
       style="font-weight:bold;font-size:42px;line-height:1.25;font-family:'Bodoni Moda';-inkscape-font-specification:'Bodoni Moda Bold';stroke-width:0.442254;fill:#757575;fill-opacity:0.27450982" /><g
       id="g2831"
       transform="translate(0,6.524659)"><g
         aria-label="PPIAS"
         transform="matrix(0.80976116,0,0,-0.80976116,17.256166,35.286114)"
         id="text3252"
         style="font-size:49.3973px;line-height:1.25;font-family:'Open Sans Condensed';-inkscape-font-specification:'Open Sans Condensed, ';fill:#000000;fill-opacity:1;stroke-width:0.926199"><path
           d="m 135.44029,-227.46053 q 4.44576,0 7.2861,1.33373 2.84035,1.30903 4.19877,3.7048 1.35843,2.39577 1.35843,5.60659 0,3.21083 -1.35843,5.5572 -1.35842,2.32167 -4.19877,3.5813 -2.84034,1.25963 -7.2861,1.25963 h -5.40901 v 15.04148 h 4.42106 v 0.96325 h -13.58425 v -0.96325 h 4.44575 v -35.12148 h -4.44575 v -0.96325 z m -5.40901,20.08001 h 5.40901 q 1.7536,0 3.13673,-0.83976 1.38312,-0.83975 2.32167,-2.22288 0.96325,-1.38312 1.45722,-3.03793 0.49397,-1.67951 0.49397,-3.33432 0,-1.65481 -0.49397,-3.35902 -0.49397,-1.7042 -1.45722,-3.13672 -0.93855,-1.43253 -2.32167,-2.29698 -1.38313,-0.88915 -3.13673,-0.88915 h -5.40901 z"
           style="font-family:'Bodoni Moda';-inkscape-font-specification:'Bodoni Moda';fill:#000000;fill-opacity:1"
           id="path59520" /><path
           d="m 152.40818,-190.41255 v -0.96325 h 5.4337 v -35.12148 h -5.4337 v -0.96325 h 16.05412 v 0.96325 h -5.92768 v 35.12148 h 5.92768 v 0.96325 z"
           style="font-family:'Bodoni Moda';-inkscape-font-specification:'Bodoni Moda';fill:#000000;fill-opacity:1"
           id="path59522" /><path
           d="m 180.66339,-201.99622 v -0.96325 h 16.00473 v 0.96325 z m 9.33609,-26.18057 12.74451,36.80099 h 3.85299 v 0.96325 h -14.32522 v -0.96325 h 5.06322 l -9.70657,-30.05826 -10.47223,30.05826 h 5.23612 v 0.96325 h -10.86741 v -0.96325 h 4.51986 l 12.94209,-36.80099 z"
           style="font-family:'Bodoni Moda';-inkscape-font-specification:'Bodoni Moda';fill:#000000;fill-opacity:1"
           id="path59524" /><path
           d="m 223.44142,-189.69629 q -3.18612,0 -5.5078,-0.98795 -2.32167,-1.01264 -3.87769,-2.71685 l -2.29697,3.48251 h -0.83975 v -10.15114 h 0.96324 q 0.39518,2.02529 1.25963,3.72949 0.86446,1.70421 2.22288,2.96384 1.38313,1.25963 3.26022,1.97589 1.9018,0.69156 4.37167,0.69156 2.61805,0 4.51985,-0.88915 1.92649,-0.88915 2.96384,-2.56866 1.03734,-1.7042 1.03734,-4.14937 0,-2.17348 -1.06204,-3.6554 -1.06204,-1.50662 -2.84035,-2.59336 -1.7536,-1.11144 -3.85299,-2.02529 -2.09938,-0.93855 -4.19877,-1.95119 -2.09938,-1.01265 -3.85299,-2.34637 -1.7536,-1.35843 -2.84034,-3.26022 -1.06204,-1.9265 -1.06204,-4.66805 0,-2.71685 1.38312,-4.76684 1.38313,-2.07469 3.7048,-3.21082 2.32167,-1.16084 5.16202,-1.16084 2.44516,0 4.47045,0.79036 2.04999,0.76565 3.58131,2.34637 l 2.29697,-3.13673 h 0.81506 v 10.15114 h -0.93855 q -0.49398,-3.08733 -1.8771,-5.08792 -1.35843,-2.02529 -3.38371,-2.98853 -2.0006,-0.98795 -4.49516,-0.98795 -3.53191,0 -5.35961,1.67951 -1.803,1.65481 -1.803,4.39636 0,1.97589 1.03735,3.33432 1.06204,1.35842 2.79094,2.37107 1.72891,1.01264 3.8036,1.92649 2.07468,0.91385 4.14937,1.97589 2.07469,1.06205 3.80359,2.49457 1.72891,1.40782 2.76625,3.45781 1.06204,2.02529 1.06204,4.93973 0,3.21082 -1.38312,5.60659 -1.38313,2.37107 -3.92709,3.6801 -2.54396,1.30903 -6.02647,1.30903 z"
           style="font-family:'Bodoni Moda';-inkscape-font-specification:'Bodoni Moda';fill:#000000;fill-opacity:1"
           id="path59526" /></g><g
         id="g2812"
         transform="translate(-1.4841725)"><g
           id="g7366"><g
             id="g10529"
             transform="translate(-0.96783833)"><rect
               style="fill:none;fill-opacity:1;stroke:#000000;stroke-width:3;stroke-miterlimit:4;stroke-dasharray:none;stroke-opacity:1"
               id="rect1407"
               width="20.823242"
               height="20.823246"
               x="104.53265"
               y="-170.34509"
               transform="scale(1,-1)" /><rect
               style="fill:none;fill-opacity:1;stroke:#000000;stroke-width:3;stroke-miterlimit:4;stroke-dasharray:none;stroke-opacity:1"
               id="rect1407-35"
               width="18.329996"
               height="18.33"
               x="204.54218"
               y="-165.92525"
               transform="scale(1,-1)" /><rect
               style="fill:none;fill-opacity:1;stroke:#000000;stroke-width:3;stroke-miterlimit:4;stroke-dasharray:none;stroke-opacity:1"
               id="rect1407-3"
               width="21.962334"
               height="21.962337"
               x="180.23683"
               y="-133.39723"
               transform="scale(1,-1)" /><rect
               style="fill:none;fill-opacity:1;stroke:#000000;stroke-width:3;stroke-miterlimit:4;stroke-dasharray:none;stroke-opacity:1"
               id="rect1407-3-5"
               width="11.901628"
               height="11.901624"
               x="148.79279"
               y="-142.47931"
               transform="scale(1,-1)" /><rect
               style="fill:none;fill-opacity:1;stroke:#000000;stroke-width:3;stroke-miterlimit:4;stroke-dasharray:none;stroke-opacity:1"
               id="rect1407-6"
               width="18.297386"
               height="18.297386"
               x="116.76869"
               y="-131.01813"
               transform="scale(1,-1)" /><rect
               style="fill:none;fill-opacity:1;stroke:#000000;stroke-width:3;stroke-miterlimit:4;stroke-dasharray:none;stroke-opacity:1"
               id="rect1407-7"
               width="14.618083"
               height="14.618083"
               x="162.54813"
               y="-170.20572"
               transform="scale(1,-1)" /><path
               style="fill:#ac9d93;stroke:#000000;stroke-width:1.8525;stroke-linecap:butt;stroke-linejoin:miter;stroke-miterlimit:4;stroke-dasharray:none;stroke-opacity:1"
               d="m 115.5098,149.58336 9.01136,-18.36923"
               id="path2119"
               sodipodi:nodetypes="cc" /><path
               style="fill:none;stroke:#000000;stroke-width:1.8525;stroke-linecap:butt;stroke-linejoin:miter;stroke-miterlimit:4;stroke-dasharray:none;stroke-opacity:1"
               d="m 125.5102,157.0877 23.1347,-18.06549"
               id="path2121"
               sodipodi:nodetypes="cc" /><path
               style="fill:none;stroke:#000000;stroke-width:1.8525;stroke-linecap:butt;stroke-linejoin:miter;stroke-miterlimit:4;stroke-dasharray:none;stroke-opacity:1"
               d="m 165.06385,155.61557 -7.04886,-13.1974"
               id="path2123"
               sodipodi:nodetypes="cc" /><path
               style="fill:none;stroke:#000000;stroke-width:1.8525;stroke-linecap:butt;stroke-linejoin:miter;stroke-miterlimit:4;stroke-dasharray:none;stroke-opacity:1"
               d="m 148.77751,133.33348 -13.72092,-8.45459"
               id="path2125"
               sodipodi:nodetypes="cc" /><path
               style="fill:none;stroke:#000000;stroke-width:1.8525;stroke-linecap:butt;stroke-linejoin:miter;stroke-miterlimit:4;stroke-dasharray:none;stroke-opacity:1"
               d="m 160.62873,133.22413 20.421,-8.96044"
               id="path2127"
               sodipodi:nodetypes="cc" /><path
               style="fill:none;stroke:#000000;stroke-width:1.8525;stroke-linecap:butt;stroke-linejoin:miter;stroke-miterlimit:4;stroke-dasharray:none;stroke-opacity:1"
               d="M 187.83753,132.91333 174.6197,155.8533"
               id="path2129"
               sodipodi:nodetypes="cc" /><path
               style="fill:none;stroke:#000000;stroke-width:1.8525;stroke-linecap:butt;stroke-linejoin:miter;stroke-miterlimit:4;stroke-dasharray:none;stroke-opacity:1"
               d="m 125.03517,160.03868 37.45885,2.87394"
               id="path3775"
               sodipodi:nodetypes="cc" /><path
               style="fill:none;stroke:#000000;stroke-width:1.8525;stroke-linecap:butt;stroke-linejoin:miter;stroke-miterlimit:4;stroke-dasharray:none;stroke-opacity:1"
               d="m 199.69075,133.15135 7.58701,14.39064"
               id="path4136"
               sodipodi:nodetypes="cc" /><path
               style="fill:none;stroke:#000000;stroke-width:1.8525;stroke-linecap:butt;stroke-linejoin:miter;stroke-miterlimit:4;stroke-dasharray:none;stroke-opacity:1"
               d="m 177.70833,163.56585 27.19089,-6.61388"
               id="path4138"
               sodipodi:nodetypes="cc" /></g></g></g></g><rect
       style="fill:none;fill-opacity:1;stroke:#000000;stroke-width:3;stroke-linejoin:miter;stroke-miterlimit:0;stroke-dasharray:none;stroke-opacity:1"
       id="rect933"
       width="163.5"
       height="163.5"
       x="79.794899"
       y="-256.2453"
       transform="scale(1,-1)" /></g></svg>
