<?xml version="1.0" encoding="UTF-8" standalone="no"?>
<!-- Created with Inkscape (http://www.inkscape.org/) -->

<svg
   version="1.1"
   id="svg2"
   xml:space="preserve"
   width="222"
   height="222"
   viewBox="0 0 222 222"
   sodipodi:docname="logo_b&amp;w.svg"
   inkscape:version="1.1 (ce6663b3b7, 2021-05-25)"
   xmlns:inkscape="http://www.inkscape.org/namespaces/inkscape"
   xmlns:sodipodi="http://sodipodi.sourceforge.net/DTD/sodipodi-0.dtd"
   xmlns="http://www.w3.org/2000/svg"
   xmlns:svg="http://www.w3.org/2000/svg"><defs
     id="defs6"><clipPath
       clipPathUnits="userSpaceOnUse"
       id="clipPath16"><path
         d="M 0,279.467 H 331.733 V 0 H 0 Z"
         id="path14" /></clipPath></defs><sodipodi:namedview
     id="namedview4"
     pagecolor="#ffffff"
     bordercolor="#666666"
     borderopacity="1.0"
     inkscape:pageshadow="2"
     inkscape:pageopacity="0.0"
     inkscape:pagecheckerboard="0"
     showgrid="false"
     inkscape:zoom="3.3132939"
     inkscape:cx="107.59685"
     inkscape:cy="153.32174"
     inkscape:window-width="2488"
     inkscape:window-height="1377"
     inkscape:window-x="72"
     inkscape:window-y="27"
     inkscape:window-maximized="1"
     inkscape:current-layer="g8"
     fit-margin-top="0"
     fit-margin-left="0"
     fit-margin-right="0"
     fit-margin-bottom="0" /><g
     id="g8"
     inkscape:groupmode="layer"
     inkscape:label="Logo IEA gold"
     transform="matrix(1.3333333,0,0,-1.3333333,-104.3932,343.66039)"><circle
       style="fill:#000000;fill-opacity:1;fill-rule:evenodd;stroke:none;stroke-width:2.20057;stroke-miterlimit:4;stroke-dasharray:none;stroke-opacity:1"
       id="path91127"
       cx="161.22615"
       cy="-174.81404"
       transform="scale(1,-1)"
       r="82.931252" /><g
       id="g34"
       transform="translate(187.6986,174.0945)"
       style="fill:#ffffff"><path
         d="M 0,0 V 5.57 H 0.435 L 0.836,8.04 0.153,8.564 H -0.934 L -1.642,8.04 -1.298,5.57 h 0.491 V 0 h -0.012 c -0.772,0.422 -1.889,0.689 -3.096,0.8 v 6.087 h 0.438 l 0.394,2.474 -0.68,0.524 H -4.849 L -5.554,9.361 -5.211,6.887 h 0.495 V 0.841 C -6.576,0.905 -8.507,0.632 -9.646,0 h -32.771 v 5.57 h 0.435 l 0.4,2.47 -0.683,0.524 h -1.086 l -0.705,-0.524 0.345,-2.47 h 0.49 V 0 h -0.025 c -0.764,0.419 -1.883,0.686 -3.084,0.8 v 6.087 h 0.434 l 0.403,2.474 -0.683,0.524 h -1.091 l -0.704,-0.524 0.341,-2.474 h 0.494 V 0.841 C -48.995,0.908 -50.931,0.635 -52.076,0 h -36.99 v -2.064 h 37.619 l 0.267,0.19 c 1.27,0.911 5.752,0.909 7.053,-0.003 l 0.267,-0.187 h 34.839 l 0.266,0.19 c 1.274,0.911 5.751,0.909 7.05,-0.003 l 0.267,-0.187 H 36.169 V 0 Z"
         style="fill:#ffffff;fill-opacity:1;fill-rule:nonzero;stroke:none"
         id="path36" /></g><g
       id="g38"
       transform="translate(161.2504,166.1653)"
       style="fill:#ffffff"><path
         d="m 0,0 c -10.304,0 -18.693,-6.649 -18.693,-14.823 h 1.933 c 0,6.538 8.088,11.857 16.76,11.857 8.672,0 16.761,-5.319 16.761,-11.857 h 1.933 C 18.694,-6.649 10.308,0 0,0"
         style="fill:#ffffff;fill-opacity:1;fill-rule:nonzero;stroke:none"
         id="path40" /></g><g
       id="g42"
       transform="translate(203.6996,166.1653)"
       style="fill:#ffffff"><path
         d="m 0,0 c -10.308,0 -18.697,-6.649 -18.697,-14.823 h 1.933 c 0,6.538 8.089,11.857 16.764,11.857 8.669,0 16.761,-5.319 16.761,-11.857 H 18.69 C 18.69,-6.649 10.301,0 0,0"
         style="fill:#ffffff;fill-opacity:1;fill-rule:nonzero;stroke:none"
         id="path44" /></g><g
       id="g46"
       transform="translate(118.8026,166.1653)"
       style="fill:#ffffff"><path
         d="m 0,0 c -10.308,0 -18.694,-6.649 -18.694,-14.823 h 1.932 c 0,6.538 8.09,11.857 16.762,11.857 8.672,0 16.76,-5.319 16.76,-11.857 h 1.934 C 18.694,-6.649 10.305,0 0,0"
         style="fill:#ffffff;fill-opacity:1;fill-rule:nonzero;stroke:none"
         id="path48" /></g><g
       id="g50"
       transform="translate(182.4691,170.8074)"
       style="fill:#ffffff"><path
         d="M 0,0 C -0.763,0 -2.344,-0.082 -3.461,-0.61 H -38.985 C -40.1,-0.082 -41.68,0 -42.445,0 c -0.761,0 -2.34,-0.082 -3.456,-0.61 h -37.934 l 1.936,-1.549 h 34.867 v -8.037 l 0.33,-0.232 c 0.84,-0.578 2.346,-0.765 3.484,-0.813 v -8.221 h 1.551 v 8.221 c 1.139,0.048 2.644,0.235 3.482,0.813 l 0.329,0.232 v 8.037 h 33.267 v -8.037 l 0.334,-0.232 c 0.831,-0.578 2.34,-0.765 3.481,-0.813 v -8.221 h 1.549 v 8.221 c 1.136,0.048 2.645,0.235 3.48,0.813 l 0.336,0.232 v 8.037 h 34.347 l 2.463,1.549 H 3.461 C 2.343,-0.082 0.762,0 0,0 m -39.401,-9.323 h -6.084 v 7.196 c 0.328,0.248 1.438,0.578 3.04,0.578 1.604,0 2.715,-0.33 3.044,-0.578 z m 42.442,0 h -6.083 v 7.196 c 0.327,0.248 1.438,0.578 3.042,0.578 1.6,0 2.712,-0.33 3.041,-0.578 z"
         style="fill:#ffffff;fill-opacity:1;fill-rule:nonzero;stroke:none"
         id="path52" /></g><g
       id="g54"
       transform="translate(117.331,189.3777)"
       style="fill:#ffffff"><path
         d="m 0,0 v 0.991 c 3.935,0 4.503,0.809 4.503,5.547 v 15.407 c 0,4.738 -0.568,5.491 -4.503,5.491 v 1 h 12.795 v -1 c -3.932,0 -4.501,-0.753 -4.501,-5.491 V 6.538 C 8.294,1.8 8.863,0.991 12.795,0.991 V 0 Z"
         style="fill:#ffffff;fill-opacity:1;fill-rule:nonzero;stroke:none"
         id="path56" /></g><g
       id="g58"
       transform="translate(143.0155,190.3714)"
       style="fill:#ffffff"><path
         d="m 0,0 c 3.928,0 4.5,0.807 4.5,5.544 v 15.405 c 0,4.738 -0.572,5.496 -4.5,5.496 v 0.994 h 21.607 l 0.426,-6.255 H 21.037 L 20.8,22.13 c -0.66,2.464 -1.134,3.557 -5.494,3.557 H 8.291 V 14.928 h 2.371 c 4.737,0 5.495,0.568 5.495,4.548 h 0.998 V 8.625 h -0.998 c 0,3.979 -0.758,4.55 -5.495,4.55 H 8.291 V 6.256 c 0,-4.738 0.565,-5.497 4.5,-5.497 h 4.079 c 4.356,0 4.877,1.086 5.495,3.601 l 0.237,0.946 h 0.993 l -0.375,-6.3 H 0 Z"
         style="fill:#ffffff;fill-opacity:1;fill-rule:nonzero;stroke:none"
         id="path60" /></g><g
       id="g62"
       transform="translate(181.1186,193.9754)"
       style="fill:#ffffff"><path
         d="M 0,0 C -1.137,-2.563 -0.237,-3.607 3.7,-3.607 V -4.601 H -7.395 v 0.994 c 3.985,0 4.22,0.807 5.69,4.125 L 8.724,24.639 H 9.34 L 19.812,0.518 c 1.467,-3.318 1.706,-4.125 5.636,-4.125 V -4.601 H 12.327 v 0.994 c 3.929,0 4.834,0.997 3.694,3.607 L 13.747,5.256 H 2.277 Z M 7.965,18.354 3.033,6.936 h 9.911 z"
         style="fill:#ffffff;fill-opacity:1;fill-rule:nonzero;stroke:none"
         id="path64" /></g><g
       id="g66"
       transform="translate(161.2519,91.8313)"
       style="fill:#ffffff;stroke:#ffffff;stroke-opacity:1;stroke-width:0.99975002;stroke-miterlimit:4;stroke-dasharray:none"><path
         d="m 0,0 c -45.746,0 -82.957,37.216 -82.957,82.958 0,45.742 37.211,82.956 82.957,82.956 45.742,0 82.954,-37.214 82.954,-82.956 C 82.954,37.216 45.742,0 0,0 m 0,162.208 c -43.703,0 -79.249,-35.549 -79.249,-79.25 0,-43.703 35.546,-79.256 79.249,-79.256 43.699,0 79.251,35.553 79.251,79.256 0,43.701 -35.552,79.25 -79.251,79.25"
         style="fill:#ffffff;fill-opacity:1;fill-rule:nonzero;stroke:#ffffff;stroke-opacity:1;stroke-width:0.99975002;stroke-miterlimit:4;stroke-dasharray:none"
         id="path68" /></g><g
       id="g70"
       transform="translate(161.2519,248.5745)"
       style="fill:#ffffff"><path
         d="m 0,0 c -40.696,0 -73.802,-33.111 -73.802,-73.801 0,-40.696 33.106,-73.807 73.802,-73.807 40.699,0 73.803,33.111 73.803,73.807 C 73.803,-33.111 40.699,0 0,0 m 0,-149.364 c -41.663,0 -75.558,33.894 -75.558,75.563 0,41.659 33.895,75.553 75.558,75.553 41.661,0 75.555,-33.894 75.555,-75.553 0,-41.669 -33.894,-75.563 -75.555,-75.563"
         style="fill:#ffffff;fill-opacity:1;fill-rule:nonzero;stroke:none"
         id="path72" /></g><g
       id="g74"
       transform="translate(184.1967,132.8352)"
       style="fill:#ffffff"><path
         d="m 0,0 c 0,1.267 1.149,2.258 2.946,2.258 1.423,0 2.709,-0.457 3.989,-1.505 l 0.914,1.21 C 6.446,3.087 5.004,3.655 2.984,3.655 c -2.626,0 -4.54,-1.575 -4.54,-3.791 0,-2.29 1.46,-3.319 4.639,-4.011 2.905,-0.613 3.598,-1.343 3.598,-2.648 0,-1.403 -1.226,-2.372 -3.08,-2.372 -1.918,0 -3.303,0.651 -4.745,1.956 l -0.971,-1.143 c 1.661,-1.483 3.462,-2.216 5.658,-2.216 2.744,0 4.719,1.54 4.719,3.93 0,2.138 -1.422,3.268 -4.506,3.932 C 0.711,-2.054 0,-1.32 0,0 m -8.164,-10.37 h 1.559 V 3.459 h -1.559 z m -6.476,9.641 c 0,-1.798 -1.485,-2.869 -3.559,-2.869 h -4.25 V 2.02 h 4.273 c 2.235,0 3.536,-1.025 3.536,-2.749 m 2.071,-9.641 -4.245,5.652 c 2.174,0.397 3.753,1.733 3.753,4.051 0,2.49 -1.953,4.126 -4.999,4.126 h -5.947 V -10.37 h 1.558 v 5.375 h 3.955 l 4.014,-5.375 z m -19.413,5.055 h -6.307 l 3.162,7.052 z m -2.394,8.875 h -1.459 l -6.305,-13.93 h 1.599 l 1.638,3.654 h 7.532 l 1.619,-3.654 h 1.681 z m -11.003,-4.567 c 0,-1.839 -1.502,-3.063 -3.798,-3.063 h -3.422 v 6.09 h 3.503 c 2.234,0 3.717,-1.025 3.717,-3.027 m 1.576,0.061 c 0,2.747 -2.054,4.405 -5.172,4.405 h -5.181 V -10.37 h 1.557 v 4.88 h 3.367 c 2.941,0 5.429,1.537 5.429,4.544"
         style="fill:#ffffff;fill-opacity:1;fill-rule:nonzero;stroke:none"
         id="path76" /></g></g></svg>
